<svg version="1.1" id="Layer_1" xmlns="http://www.w3.org/2000/svg" xmlns:xlink="http://www.w3.org/1999/xlink" x="0px" y="0px" viewBox="0 0 500 500" style="width: 158px;" xml:space="preserve" data-imageid="construction-worker-27" imageName="Construction Worker" class="illustrations_image">
<style type="text/css">
	.st0_construction-worker-27{fill:#68E1FD;}
	.st1_construction-worker-27{fill:#093F68;}
	.st2_construction-worker-27{fill:#FFC9B0;}
	.st3_construction-worker-27{fill:#725858;}
	.st4_construction-worker-27{fill:#F56132;}
	.st5_construction-worker-27{fill:#FFFFFF;}
</style>
<g id="character_construction-worker-27">
	<path class="st0_construction-worker-27 targetColor" d="M346.2,344.9v72.5H152.1v-72.5c0-34.2,27.7-61.9,61.9-61.9h70.3c34.2,0,61.9,27.6,61.9,61.8&#10;&#9;&#9;C346.2,344.7,346.2,344.8,346.2,344.9L346.2,344.9z" style="fill: rgb(255, 178, 27);"/>
	<path class="st1_construction-worker-27" d="M346.2,419.2H152.1c-1,0-1.8-0.8-1.8-1.8v-72.5c0-23.8,13.2-45.6,34.3-56.6c9.1-4.7,19.1-7.2,29.4-7.2h70.3&#10;&#9;&#9;c35.2,0,63.7,28.5,63.7,63.6c0,0,0,0.1,0,0.1v72.5C348,418.4,347.2,419.2,346.2,419.2z M153.9,415.5h190.5v-70.7&#10;&#9;&#9;c0.1-33.1-26.8-60-59.9-60.1c-0.1,0-0.1,0-0.2,0H214c-9.6,0-19.2,2.3-27.7,6.8c-19.9,10.3-32.4,30.9-32.4,53.3L153.9,415.5z"/>
	<rect x="234.8" y="254.2" class="st2_construction-worker-27" width="28.7" height="28.7"/>
	<path class="st1_construction-worker-27" d="M263.5,284.7h-28.7c-1,0-1.8-0.8-1.8-1.8c0,0,0,0,0,0v-28.7c0-1,0.8-1.8,1.8-1.8h0h28.7c1,0,1.8,0.8,1.8,1.8&#10;&#9;&#9;v28.7C265.4,283.9,264.6,284.7,263.5,284.7L263.5,284.7z M236.6,281.1h25.1V256h-25.1L236.6,281.1z"/>
	<ellipse class="st2_construction-worker-27" cx="190" cy="200.1" rx="20.3" ry="27.9"/>
	<path class="st1_construction-worker-27" d="M190,229.8c-12.2,0-22.1-13.3-22.1-29.7s9.9-29.7,22.1-29.7s22.1,13.3,22.1,29.7S202.2,229.8,190,229.8z&#10;&#9;&#9; M190,174.1c-10.2,0-18.5,11.7-18.5,26.1s8.3,26,18.5,26s18.5-11.7,18.5-26S200.2,174.1,190,174.1z"/>
	<ellipse class="st2_construction-worker-27" cx="308.4" cy="200.1" rx="20.3" ry="27.9"/>
	<path class="st1_construction-worker-27" d="M308.4,229.8c-12.2,0-22.1-13.3-22.1-29.7s9.9-29.7,22.1-29.7s22.1,13.3,22.1,29.7S320.6,229.8,308.4,229.8z&#10;&#9;&#9; M308.4,174.1c-10.2,0-18.5,11.7-18.5,26.1s8.3,26,18.5,26s18.5-11.7,18.5-26S318.6,174.1,308.4,174.1z"/>
	<path class="st2_construction-worker-27" d="M289.1,124.6c12.8,0,23.1,10.4,23.1,23.1v62.6c0,33.3-26.9,60.3-60.2,60.3h-5.5c-33.3,0-60.3-27-60.3-60.3&#10;&#9;&#9;c0,0,0,0,0,0v-62.6c0-12.8,10.4-23.1,23.1-23.1c0,0,0,0,0,0L289.1,124.6z"/>
	<path class="st1_construction-worker-27" d="M252,272.4h-5.5c-34.3,0-62.1-27.8-62.1-62.1v-62.6c0-13.8,11.2-25,25-25h79.8c13.8,0,25,11.2,25,25v62.6&#10;&#9;&#9;C314.1,244.6,286.3,272.4,252,272.4z M209.3,126.4c-11.8,0-21.3,9.5-21.3,21.3v62.6c0,32.3,26.2,58.4,58.4,58.5h5.6&#10;&#9;&#9;c32.3,0,58.4-26.2,58.4-58.5v-62.6c0-11.8-9.6-21.3-21.3-21.3L209.3,126.4z"/>
	<path class="st3_construction-worker-27" d="M293.8,228.4c-6.5-9.7-24-16.6-44.6-16.6s-38.1,6.9-44.6,16.6c-11.8-11.3-18.5-27-18.4-43.4v25.3&#10;&#9;&#9;c0,33.3,27,60.3,60.3,60.3c0,0,0,0,0,0h5.6c33.3,0,60.3-27,60.3-60.3c0,0,0,0,0,0V185C312.3,201.4,305.6,217.1,293.8,228.4z&#10;&#9;&#9; M249.2,253.1c-15.9,0-28.9-6.4-30.5-14.6c-0.1-0.5-0.2-1.1-0.2-1.7c0-9,13.7-16.2,30.6-16.2s30.6,7.3,30.6,16.2&#10;&#9;&#9;c0,0.6-0.1,1.1-0.2,1.7C278,246.8,265,253.1,249.2,253.1z"/>
	<path class="st1_construction-worker-27" d="M252,272.4h-5.5c-34.3,0-62.1-27.8-62.1-62.1V185c0-1,0.8-1.8,1.8-1.8c1,0,1.8,0.8,1.8,1.8&#10;&#9;&#9;c-0.1,15.2,5.8,29.7,16.4,40.6c7.9-9.4,25.4-15.7,44.8-15.7s36.9,6.2,44.8,15.7c10.6-10.9,16.5-25.4,16.4-40.6c0-1,0.8-1.8,1.8-1.8&#10;&#9;&#9;s1.8,0.8,1.8,1.8v25.3C314,244.6,286.3,272.4,252,272.4z M188,206.1v4.2c0,32.3,26.2,58.4,58.5,58.5h5.5&#10;&#9;&#9;c32.3,0,58.4-26.2,58.4-58.5v-4.2c-3.3,9-8.5,17-15.4,23.6c-0.4,0.4-0.9,0.6-1.5,0.5c-0.5-0.1-1-0.3-1.3-0.8&#10;&#9;&#9;c-6.4-9.5-23.7-15.8-43.1-15.8s-36.7,6.4-43.1,15.8c-0.3,0.4-0.8,0.7-1.3,0.8c-0.5,0.1-1.1-0.1-1.4-0.5&#10;&#9;&#9;C196.4,223.1,191.2,215,188,206.1z M249.2,254.9c-16.6,0-30.5-6.9-32.3-16c-0.1-0.7-0.2-1.3-0.2-2c0-10.1,14.3-18.1,32.5-18.1&#10;&#9;&#9;s32.5,7.9,32.5,18.1c0,0.7-0.1,1.3-0.2,2C279.6,248.1,265.8,254.9,249.2,254.9L249.2,254.9z M249.2,222.5&#10;&#9;&#9;c-15.6,0-28.8,6.6-28.8,14.4c0,0.4,0,0.9,0.1,1.3c1.4,7.4,14,13.1,28.7,13.1s27.2-5.7,28.7-13.1c0.1-0.4,0.1-0.9,0.1-1.3&#10;&#9;&#9;C278,229.1,264.8,222.5,249.2,222.5L249.2,222.5z"/>
	<path class="st1_construction-worker-27" d="M249.9,243.7c-7,0-13.8-1.8-19.9-5.2c-0.9-0.6-1.1-1.7-0.5-2.5c0.6-0.9,1.7-1.1,2.5-0.5&#10;&#9;&#9;c11.1,6.3,24.6,6.3,35.7,0c0.9-0.5,2-0.3,2.5,0.6s0.3,2-0.6,2.5c-0.1,0-0.1,0.1-0.2,0.1C263.5,241.9,256.7,243.7,249.9,243.7z"/>
	<path class="st0_construction-worker-27 targetColor" d="M247.3,66.4h5c38.8,0,70.2,31.4,70.2,70.2v6.3l0,0H177.1l0,0v-6.4C177.1,97.9,208.5,66.4,247.3,66.4z" style="fill: rgb(255, 178, 27);"/>
	<path class="st1_construction-worker-27" d="M322.5,144.8H177.1c-1,0-1.8-0.8-1.8-1.8c0,0,0,0,0,0v-3.9c0-41.2,33.4-74.5,74.5-74.5s74.5,33.4,74.5,74.5&#10;&#9;&#9;v3.9C324.3,144,323.5,144.8,322.5,144.8C322.5,144.8,322.5,144.8,322.5,144.8z M178.9,141.2h141.8v-2c0-39.2-31.7-70.9-70.9-70.9&#10;&#9;&#9;c-39.2,0-70.9,31.7-70.9,70.9c0,0,0,0,0,0L178.9,141.2z"/>
	<path class="st0_construction-worker-27 targetColor" d="M175.3,143h149.1c7.7,0,14,6.2,14,13.9v0c0,7.7-6.2,13.9-14,13.9H175.3c-7.7,0-13.9-6.2-13.9-13.9v0&#10;&#9;&#9;C161.3,149.3,167.6,143,175.3,143z" style="fill: rgb(255, 178, 27);"/>
	<path class="st1_construction-worker-27" d="M324.4,172.7H175.3c-8.7-0.2-15.6-7.5-15.4-16.2c0.2-8.4,7-15.2,15.4-15.4h149.1c8.7,0.2,15.6,7.5,15.4,16.2&#10;&#9;&#9;C339.5,165.8,332.8,172.5,324.4,172.7z M175.3,144.8c-6.7,0.2-12,5.8-11.8,12.5c0.2,6.4,5.4,11.6,11.8,11.8h149.1&#10;&#9;&#9;c6.7-0.2,12-5.8,11.8-12.5c-0.2-6.4-5.4-11.6-11.8-11.8H175.3z"/>
	<path class="st0_construction-worker-27 targetColor" d="M240.4,60.8h18.9c6.3,0,11.4,5.1,11.4,11.4c0,0.3,0,0.6,0,0.9l-5.1,70h-31.3L229,73&#10;&#9;&#9;c-0.5-6.3,4.2-11.7,10.5-12.2C239.8,60.8,240.1,60.7,240.4,60.8z" style="fill: rgb(255, 178, 27);"/>
	<path class="st1_construction-worker-27" d="M265.5,144.8h-31.3c-1,0-1.7-0.7-1.8-1.7l-5.1-70c-0.5-7.3,4.9-13.6,12.2-14.1c0.3,0,0.6,0,1,0h18.8&#10;&#9;&#9;c7.3,0,13.2,5.9,13.2,13.2c0,0.3,0,0.7,0,1l-5.1,70C267.2,144.1,266.4,144.8,265.5,144.8z M235.9,141.2h27.9l5-68.4&#10;&#9;&#9;c0.4-5.3-3.6-9.8-8.8-10.2c-0.2,0-0.5,0-0.7,0h-18.9c-5.3,0-9.6,4.3-9.6,9.5c0,0.2,0,0.5,0,0.7L235.9,141.2z"/>
	<path class="st4_construction-worker-27" d="M244.9,417.4h-59.5V289.9c8.8-4.6,18.6-7,28.6-7h3.3C241.4,337.8,244.9,417.4,244.9,417.4z"/>
	<path class="st1_construction-worker-27" d="M244.9,419.2h-59.5c-1,0-1.8-0.8-1.8-1.8V289.9c0-0.7,0.4-1.3,1-1.6c9-4.7,19.1-7.2,29.3-7.2h3.3&#10;&#9;&#9;c0.7,0,1.4,0.4,1.7,1.1c23.9,54.6,27.7,134.3,27.7,135.1C246.8,418.3,246,419.1,244.9,419.2C245,419.2,244.9,419.2,244.9,419.2&#10;&#9;&#9;L244.9,419.2z M187.3,415.5H243c-0.7-12.3-5.7-81.6-26.9-130.8H214c-9.3,0-18.4,2.1-26.7,6.3V415.5z"/>
	<path class="st4_construction-worker-27" d="M312.9,289.9v127.5h-59.5c0,0,3.6-79.5,27.6-134.4h3.3C294.3,282.9,304.1,285.3,312.9,289.9z"/>
	<path class="st1_construction-worker-27" d="M312.9,419.2h-59.5c-1,0-1.8-0.8-1.8-1.8c0,0,0,0,0-0.1c0-0.8,3.8-80.5,27.7-135.1c0.3-0.7,0.9-1.1,1.7-1.1&#10;&#9;&#9;h3.3c10.2,0,20.3,2.4,29.4,7.2c0.6,0.3,1,0.9,1,1.6v127.5C314.7,418.4,313.9,419.2,312.9,419.2L312.9,419.2z M255.3,415.5h55.7V291&#10;&#9;&#9;c-8.3-4.1-17.5-6.3-26.7-6.2h-2.1C261,334,256.1,403.2,255.3,415.5L255.3,415.5z"/>
	<path class="st1_construction-worker-27" d="M233.9,338h-47.8c-1,0-1.8-0.8-1.8-1.8s0.8-1.8,1.8-1.8h47.8c1,0,1.8,0.8,1.8,1.8S234.9,338,233.9,338z"/>
	<path class="st1_construction-worker-27" d="M237.5,356.1h-51.4c-1,0-1.8-0.8-1.8-1.8s0.8-1.8,1.8-1.8h51.4c1,0,1.8,0.8,1.8,1.8S238.5,356.1,237.5,356.1z"/>
	<path class="st1_construction-worker-27" d="M311.5,338h-46.3c-1,0-1.8-0.8-1.8-1.8s0.8-1.8,1.8-1.8h46.3c1,0,1.8,0.8,1.8,1.8S312.6,338,311.5,338z"/>
	<path class="st1_construction-worker-27" d="M311.5,356.1h-49.8c-1,0-1.8-0.8-1.8-1.8s0.8-1.8,1.8-1.8h49.8c1,0,1.8,0.8,1.8,1.8S312.5,356.1,311.5,356.1z"/>
	<path class="st0_construction-worker-27 targetColor" d="M217.4,282.9c0.2,0,15.9,16.5,15.9,16.5l15.9-16.5H217.4z" style="fill: rgb(255, 178, 27);"/>
	<path class="st1_construction-worker-27" d="M233.3,301.2L233.3,301.2c-0.5,0-1-0.2-1.3-0.6c-5.5-5.8-14.5-15.3-15.6-16.3c-0.8-0.6-1-1.7-0.4-2.5&#10;&#9;&#9;c0.3-0.5,0.9-0.8,1.5-0.8h31.8c1,0,1.8,0.8,1.8,1.8c0,0.5-0.2,0.9-0.5,1.3l-15.9,16.5C234.2,301.1,233.8,301.3,233.3,301.2z&#10;&#9;&#9; M221.8,284.7c2.2,2.3,5.8,6,11.5,12l11.6-12H221.8z"/>
	<path class="st0_construction-worker-27 targetColor" d="M279.5,282.9c-0.3,0-15.9,16.5-15.9,16.5l-15.9-16.5H279.5z" style="fill: rgb(255, 178, 27);"/>
	<path class="st1_construction-worker-27" d="M263.5,301.2c-0.5,0-1-0.2-1.3-0.6l-15.9-16.5c-0.5-0.5-0.7-1.3-0.4-2c0.3-0.7,0.9-1.1,1.7-1.1h31.8&#10;&#9;&#9;c1,0,1.8,0.8,1.8,1.8l0,0c0,0.6-0.3,1.1-0.8,1.5c-1.1,1-10.1,10.5-15.6,16.3C264.5,301,264,301.2,263.5,301.2L263.5,301.2z&#10;&#9;&#9; M251.9,284.7l11.6,12c5.7-6,9.3-9.8,11.5-12H251.9z"/>
	<path class="st1_construction-worker-27" d="M252.6,211.4c-2.1,0-4.3-0.2-6.4-0.5c-1-0.2-1.7-1.1-1.5-2.1s1.1-1.7,2.1-1.5c0.1,0,5.9,1,9.9,0.1&#10;&#9;&#9;c0.6-1.7-1.9-8.9-5.5-15.8c-0.5-0.9-0.1-2,0.8-2.5c0.9-0.5,2-0.1,2.5,0.8l0,0c1.8,3.4,7.4,14.9,5.5,19.1c-0.4,0.9-1.2,1.6-2.2,1.9&#10;&#9;&#9;C256.1,211.2,254.3,211.4,252.6,211.4z"/>
	<circle class="st1_construction-worker-27" cx="221.3" cy="197.4" r="6.1"/>
	<path class="st1_construction-worker-27" d="M231.4,181.5h-29.3c-2,0-3.6-1.6-3.6-3.6c0-2,1.6-3.6,3.6-3.6h29.4c2,0,3.6,1.6,3.6,3.6&#10;&#9;&#9;C235.1,179.9,233.4,181.5,231.4,181.5L231.4,181.5z"/>
	<circle class="st1_construction-worker-27" cx="278.9" cy="197.4" r="6.1"/>
	<path class="st1_construction-worker-27" d="M298.1,181.5h-29.4c-2,0-3.6-1.6-3.6-3.6c0-2,1.6-3.6,3.6-3.6h29.4c2,0,3.6,1.6,3.6,3.6&#10;&#9;&#9;C301.8,179.9,300.1,181.5,298.1,181.5z"/>
</g>
<g id="board_construction-worker-27">
	<path class="st2_construction-worker-27" d="M395.7,374.5c4-1,8-1.7,12.1-2.2c1-0.2,2-0.1,3,0.2c1.7,0.8,2.2,3.1,1.5,4.9c-0.8,1.7-2.2,3.1-3.8,4&#10;&#9;&#9;c-5.4,3.6-12.1,5.5-18.5,4.4c-1.2-0.1-2.4-0.6-3.4-1.4c-1.7-1.5-3.3-7.8-1.1-9.4c1-0.7,2.4,0.2,3.5,0.2&#10;&#9;&#9;C391.3,375.4,393.5,375.1,395.7,374.5z"/>
	<path class="st1_construction-worker-27" d="M393.6,388c-1.3,0-2.6-0.1-3.9-0.3c-1.6-0.2-3.1-0.8-4.4-1.8c-1.6-1.5-2.9-5.2-2.8-8.2c-0.1-1.6,0.6-3.1,1.9-4&#10;&#9;&#9;c1.2-0.7,2.6-0.8,3.8-0.3c0.2,0.1,0.5,0.1,0.8,0.2c2.1,0,4.2-0.2,6.3-0.8l0,0c4.1-1,8.2-1.7,12.3-2.2c1.3-0.3,2.7-0.1,3.9,0.4&#10;&#9;&#9;c2.8,1.3,3.5,4.7,2.5,7.2c-1,2.1-2.5,3.8-4.5,4.9C404.8,386.2,399.3,387.9,393.6,388z M386.4,376.7c0.1,0-0.1,0.4-0.2,1.2&#10;&#9;&#9;c-0.1,1.9,0.5,3.7,1.6,5.3c0.7,0.5,1.6,0.9,2.5,0.9c5.5,0.9,11.8-0.6,17.3-4.2c1.3-0.7,2.4-1.8,3.1-3.2c0.4-0.9,0.2-1.9-0.6-2.5&#10;&#9;&#9;c-0.7-0.2-1.3-0.2-2,0c-4,0.5-8,1.2-11.9,2.1c-2.4,0.6-4.8,0.9-7.2,0.9c-0.6,0-1.1-0.1-1.7-0.3C387,376.8,386.7,376.7,386.4,376.7&#10;&#9;&#9;L386.4,376.7z"/>
	<circle class="st1_construction-worker-27" cx="365.4" cy="325" r="7"/>
	<path class="st1_construction-worker-27" d="M365.4,333.8c-0.7,0-1.3-0.1-2-0.2c-4.8-1.1-7.7-5.8-6.6-10.6c0,0,0,0,0,0l0,0c1.1-4.7,5.9-7.7,10.6-6.6&#10;&#9;&#9;c4.7,1.1,7.7,5.9,6.5,10.6C373,331,369.5,333.8,365.4,333.8L365.4,333.8z M360.3,323.8c-0.8,2.8,0.9,5.6,3.6,6.4&#10;&#9;&#9;c2.8,0.8,5.6-0.9,6.4-3.6c0-0.1,0.1-0.3,0.1-0.4c0.3-1.3,0.1-2.7-0.6-3.9c-1.5-2.4-4.7-3.2-7.1-1.7&#10;&#9;&#9;C361.5,321.3,360.6,322.5,360.3,323.8L360.3,323.8z"/>
	
		<rect x="356.1" y="313.2" transform="matrix(0.228 -0.9737 0.9737 0.228 -42.8817 610.6189)" class="st1_construction-worker-27" width="15" height="38.3"/>
	<path class="st1_construction-worker-27" d="M380.6,345.8c-0.1,0-0.3,0-0.4,0l-37.3-8.7c-1-0.2-1.6-1.2-1.4-2.2c0,0,0,0,0,0l3.5-14.7&#10;&#9;&#9;c0.2-1,1.2-1.6,2.2-1.4l37.3,8.7c1,0.2,1.6,1.2,1.4,2.2c0,0,0,0,0,0l-3.4,14.6C382.2,345.3,381.4,345.8,380.6,345.8z M345.5,333.9&#10;&#9;&#9;l33.7,7.9l2.6-11.1l-33.7-7.9L345.5,333.9z"/>
	<path class="st5_construction-worker-27" d="M378.2,438.6L303.4,421c-1.6-0.4-2.6-1.9-2.2-3.5l21.9-93.6c0.4-1.6,1.9-2.6,3.5-2.2l74.8,17.5&#10;&#9;&#9;c1.6,0.4,2.6,1.9,2.2,3.5l-21.9,93.6C381.3,437.9,379.8,438.9,378.2,438.6z"/>
	<path class="st1_construction-worker-27" d="M377.1,440c-0.6,0-1.1-0.1-1.6-0.2l-70.1-16.4l0,0c-3.8-0.9-6.2-4.7-5.3-8.6c0,0,0,0,0,0l20.8-88.9&#10;&#9;&#9;c0.9-3.8,4.7-6.2,8.6-5.3l70.1,16.4c3.8,0.9,6.2,4.7,5.3,8.6c0,0,0,0,0,0l-20.8,88.9C383.3,437.7,380.4,440,377.1,440L377.1,440z&#10;&#9;&#9; M306.1,419.8l70.1,16.4c1.9,0.4,3.8-0.7,4.2-2.6c0,0,0,0,0,0l20.8-88.9c0.4-1.9-0.7-3.8-2.6-4.2l-70.1-16.5&#10;&#9;&#9;c-1.9-0.4-3.8,0.7-4.2,2.6c0,0,0,0,0,0l-20.8,88.9C303.1,417.5,304.3,419.3,306.1,419.8L306.1,419.8z"/>
	<path class="st2_construction-worker-27" d="M403.2,392.4l-21.6-11.2c-1.1-0.6-1.5-1.9-0.9-3l1.7-3.2c0.6-1.1,1.9-1.5,3-0.9l21.6,11.2&#10;&#9;&#9;c1.1,0.6,1.5,1.9,0.9,3l-1.7,3.2C405.6,392.5,404.2,393,403.2,392.4z"/>
	<path class="st1_construction-worker-27" d="M403.4,393.9c-0.9,0-1.8-0.2-2.7-0.6l-18.4-9.5c-2.9-1.5-4-5-2.5-7.8s5-4,7.8-2.5l0,0l18.4,9.5&#10;&#9;&#9;c2.9,1.4,4,4.9,2.6,7.8C407.6,392.7,405.6,393.9,403.4,393.9L403.4,393.9z M385,376.4c-0.2,0-0.4,0-0.7,0.1c-0.5,0.2-1,0.6-1.3,1.1&#10;&#9;&#9;c-0.5,1.1-0.1,2.4,0.9,2.9l0,0l18.4,9.5c1.1,0.5,2.4,0,2.9-1.1c0.5-1,0.1-2.3-0.9-2.8l-18.4-9.5C385.7,376.4,385.3,376.4,385,376.4&#10;&#9;&#9;z"/>
	<path class="st2_construction-worker-27" d="M399.5,399.5l-21.6-11.2c-1.1-0.6-1.5-1.9-0.9-3l1.7-3.2c0.6-1.1,1.9-1.5,3-0.9l21.6,11.2&#10;&#9;&#9;c1.1,0.6,1.5,1.9,0.9,3l-1.7,3.2C401.9,399.6,400.6,400.1,399.5,399.5z"/>
	<path class="st1_construction-worker-27" d="M399.7,401c-0.9,0-1.8-0.2-2.7-0.6l-18.4-9.5l0,0c-2.9-1.5-4-5-2.5-7.9s5-4,7.9-2.5l18.4,9.5&#10;&#9;&#9;c2.8,1.5,4,5,2.5,7.8c-0.7,1.4-1.9,2.4-3.4,2.9C400.9,400.9,400.3,401,399.7,401z M380.3,387.6l18.4,9.5c0.5,0.3,1.1,0.3,1.7,0.1&#10;&#9;&#9;c0.6-0.2,1-0.6,1.3-1.1c0.6-1,0.2-2.4-0.9-2.9c0,0,0,0,0,0l-18.4-9.5c-1.1-0.6-2.4-0.1-2.9,0.9S379.2,387,380.3,387.6L380.3,387.6z&#10;&#9;&#9;"/>
	<path class="st2_construction-worker-27" d="M395.8,406.6l-21.6-11.2c-1.1-0.6-1.5-1.9-0.9-3l1.7-3.2c0.6-1.1,1.9-1.5,3-0.9l21.6,11.2&#10;&#9;&#9;c1.1,0.6,1.5,1.9,0.9,3l-1.7,3.2C398.2,406.7,396.9,407.2,395.8,406.6z"/>
	<path class="st1_construction-worker-27" d="M396,408.1c-0.9,0-1.8-0.2-2.7-0.6l-18.3-9.5l0,0c-2.9-1.5-4-5-2.5-7.8s5-4,7.8-2.5l18.4,9.5&#10;&#9;&#9;c2.9,1.5,4,5,2.5,7.8C400.3,406.9,398.3,408.1,396,408.1L396,408.1z M376.6,394.7l18.4,9.5c1.1,0.5,2.4,0.1,2.9-0.9&#10;&#9;&#9;c0.3-0.5,0.3-1.1,0.1-1.7c-0.2-0.5-0.6-1-1.1-1.3l-18.4-9.5c-1.1-0.6-2.4-0.1-2.9,0.9S375.5,394.1,376.6,394.7L376.6,394.7z"/>
	<path class="st2_construction-worker-27" d="M392.2,413.7l-21.6-11.2c-1.1-0.6-1.5-1.9-0.9-3l1.7-3.2c0.6-1.1,1.9-1.5,3-0.9l21.6,11.2&#10;&#9;&#9;c1.1,0.6,1.5,1.9,0.9,3l-1.7,3.2C394.6,413.8,393.2,414.3,392.2,413.7z"/>
	<path class="st1_construction-worker-27" d="M392.4,415.1c-0.9,0-1.8-0.2-2.7-0.6l-18.4-9.5c-2.9-1.5-4-5-2.5-7.8s5-4,7.8-2.5l18.4,9.5&#10;&#9;&#9;c2.9,1.5,4,5,2.5,7.8C396.6,414,394.6,415.2,392.4,415.1L392.4,415.1z M374,397.6c-0.2,0-0.4,0-0.7,0.1c-0.6,0.2-1,0.6-1.3,1.1&#10;&#9;&#9;c-0.3,0.5-0.3,1.1-0.1,1.7c0.2,0.5,0.6,1,1.1,1.3l0,0l18.4,9.5c1.1,0.6,2.4,0.1,2.9-0.9s0.1-2.4-0.9-2.9l0,0l-18.4-9.5&#10;&#9;&#9;C374.7,397.7,374.3,397.6,374,397.6z"/>
</g>
<g id="hammer_construction-worker-27">
	<path class="st1_construction-worker-27" d="M166.4,426.1l-8.5,3.6c-1.4,0.6-3-0.1-3.6-1.5l-46.9-110.1c-0.5-1.1,0-2.4,1.2-2.9l9.6-4.1&#10;&#9;&#9;c1.1-0.5,2.4,0,2.9,1.2l46.9,110.1C168.5,423.8,167.8,425.5,166.4,426.1L166.4,426.1z"/>
	<path class="st1_construction-worker-27" d="M158,431c-2.8,0-5.3-1.6-6.3-4.2l-45.2-106.3c-0.6-1.4-0.6-3,0-4.5c0.6-1.4,1.7-2.6,3.1-3.2l6.2-2.6&#10;&#9;&#9;c3-1.3,6.4,0.1,7.7,3.1l45.3,106.3c1.5,3.5-0.1,7.5-3.6,9l-4.3,1.9l0,0C159.9,430.8,158.9,431,158,431z M160,428.8L160,428.8z&#10;&#9;&#9; M118,313.4c-0.3,0-0.6,0.1-0.9,0.2l-6.2,2.6c-0.5,0.2-1,0.7-1.2,1.2c-0.2,0.5-0.2,1.1,0,1.7L155,425.4c0.7,1.6,2.6,2.4,4.2,1.7&#10;&#9;&#9;l4.4-1.9c1.6-0.7,2.4-2.6,1.7-4.2l-45.3-106.3C119.7,313.9,118.9,313.4,118,313.4z"/>
	<path class="st0_construction-worker-27 targetColor" d="M87.7,328.5l7.4,17.3c0.9,2,3.2,3,5.2,2.1c0,0,0,0,0,0l1.1-0.5c2-0.8,3-3.2,2.2-5.2c0,0,0,0,0-0.1l0,0&#10;&#9;&#9;c5.2-1.6,11.5,1.7,11.5,1.7l19-8.1c0,0-0.4-9.2,1.3-11.5s13,1,13.8-1.7s-9.7-7.8-19.2-9.1c-8-1.1-27.5,8.8-33.5,11.9l-0.2-0.5&#10;&#9;&#9;c-0.9-2-3.2-3-5.2-2.1c0,0,0,0,0,0l-1.1,0.5C87.8,324.1,86.8,326.4,87.7,328.5C87.7,328.5,87.7,328.5,87.7,328.5z" style="fill: rgb(255, 178, 27);"/>
	<path class="st1_construction-worker-27" d="M98.8,350.1c-2.3,0-4.4-1.4-5.4-3.6L86,329.2c-1.3-3,0.1-6.4,3.1-7.7l1.1-0.5c1.4-0.6,3-0.6,4.5,0&#10;&#9;&#9;c1,0.4,1.8,1,2.5,1.9c8.4-4.3,25.2-12.4,33.1-11.3c8.6,1.2,18,5.2,20.2,8.7c0.6,0.8,0.8,1.8,0.5,2.8c-0.8,2.8-4.7,2.5-8.7,2.3&#10;&#9;&#9;c-1.8-0.1-4.8-0.3-5.5,0.1c-0.7,1-1.1,6.1-0.9,10.2c0,0.8-0.4,1.5-1.1,1.8l-19,8.1c-0.5,0.2-1.1,0.2-1.6-0.1c0,0-4.4-2.3-8.5-1.9&#10;&#9;&#9;c0,0.8-0.1,1.6-0.4,2.4c-0.6,1.4-1.7,2.6-3.1,3.2l-1.1,0.5C100.3,349.9,99.5,350.1,98.8,350.1z M92.5,324.2c-0.3,0-0.6,0.1-0.9,0.2&#10;&#9;&#9;l-1.1,0.5c-1.1,0.5-1.6,1.8-1.2,2.9l0,0l7.4,17.3c0.2,0.5,0.7,1,1.2,1.2c0.5,0.2,1.1,0.2,1.7,0l1.1-0.5c1.1-0.5,1.6-1.7,1.2-2.9&#10;&#9;&#9;c0,0,0,0,0,0c-0.2-0.5-0.2-1,0-1.5c0.2-0.5,0.6-0.8,1.1-1c4.8-1.5,10.1,0.5,12.1,1.4l17.1-7.3c-0.1-3.1,0-9.1,1.8-11.4&#10;&#9;&#9;c1.5-1.9,4.8-1.7,8.6-1.5c1.5,0.1,3,0.2,4.6,0.1c-1.9-1.9-9.5-5.5-17.3-6.6c-6-0.8-20.7,5.5-32.4,11.7c-0.4,0.2-1,0.3-1.5,0.1&#10;&#9;&#9;c-0.5-0.2-0.9-0.5-1.1-1l-0.2-0.5c-0.2-0.5-0.7-1-1.2-1.2C93.1,324.3,92.8,324.2,92.5,324.2L92.5,324.2z"/>
	<path class="st2_construction-worker-27" d="M147.8,379l-25.6,8c-1.6,0.5-3.3-0.4-3.8-2l-2.1-6.6c-0.5-1.6,0.4-3.3,2-3.8l25.6-8c1.6-0.5,3.3,0.4,3.8,2&#10;&#9;&#9;l2.1,6.6C150.3,376.8,149.4,378.5,147.8,379z"/>
	<path class="st1_construction-worker-27" d="M122.9,388.3c-3.2,0-6-2.1-7-5.1l-0.6-1.9c-1.2-3.8,0.9-7.9,4.8-9.1l20.9-6.6c3.8-1.2,7.9,0.9,9.1,4.8l0.6,1.9&#10;&#9;&#9;c1.2,3.8-0.9,7.9-4.8,9.1c0,0,0,0,0,0l-20.9,6.6C124.4,388.2,123.7,388.3,122.9,388.3z M143.2,368.9c-0.4,0-0.7,0.1-1.1,0.2&#10;&#9;&#9;l-20.9,6.5c-1.9,0.6-3,2.7-2.4,4.6l0.6,1.9c0.6,1.9,2.6,3,4.6,2.4c0,0,0,0,0,0l0,0l20.9-6.5c0.9-0.3,1.7-0.9,2.1-1.8&#10;&#9;&#9;c0.5-0.9,0.5-1.9,0.2-2.8l-0.6-1.9C146.3,369.9,144.8,368.9,143.2,368.9L143.2,368.9z"/>
	<path class="st2_construction-worker-27" d="M151.5,390.9l-25.6,8c-1.6,0.5-3.3-0.4-3.8-2l-2.1-6.6c-0.5-1.6,0.4-3.3,2-3.8l25.6-8c1.6-0.5,3.3,0.4,3.8,2&#10;&#9;&#9;l2.1,6.6C154,388.7,153.1,390.4,151.5,390.9z"/>
	<path class="st1_construction-worker-27" d="M126.6,400.2c-3.2,0-6-2.1-7-5.1l-0.6-1.9c-1.2-3.8,0.9-7.9,4.8-9.1l20.9-6.5c3.8-1.2,7.9,0.9,9.1,4.8l0.6,1.9&#10;&#9;&#9;c1.2,3.8-0.9,7.9-4.8,9.1c0,0,0,0,0,0l-20.9,6.5l0,0C128.1,400.1,127.4,400.2,126.6,400.2z M128.3,398.1L128.3,398.1z M146.9,380.8&#10;&#9;&#9;c-0.4,0-0.7,0.1-1.1,0.2l-20.9,6.5c-1.9,0.6-3,2.7-2.4,4.6l0.6,1.9c0.6,1.9,2.7,3,4.6,2.4l20.9-6.5c1.9-0.6,3-2.7,2.4-4.6l-0.6-1.9&#10;&#9;&#9;C150,381.8,148.5,380.8,146.9,380.8z"/>
	<path class="st2_construction-worker-27" d="M155.2,402.7l-25.6,8c-1.6,0.5-3.3-0.4-3.8-2l-2.1-6.6c-0.5-1.6,0.4-3.3,2-3.8l25.6-8c1.6-0.5,3.3,0.4,3.8,2&#10;&#9;&#9;l2.1,6.6C157.7,400.6,156.8,402.2,155.2,402.7z"/>
	<path class="st1_construction-worker-27" d="M130.4,412.1c-3.2,0-6-2.1-7-5.1l-0.6-1.9c-1.2-3.8,0.9-7.9,4.8-9.1l20.9-6.5c3.8-1.2,7.9,0.9,9.1,4.8l0.6,1.9&#10;&#9;&#9;c1.2,3.8-0.9,7.9-4.8,9.1c0,0,0,0,0,0l-20.9,6.5l0,0C131.8,412,131.1,412.1,130.4,412.1z M132,410L132,410z M150.7,392.6&#10;&#9;&#9;c-0.4,0-0.7,0.1-1.1,0.2l-20.9,6.5c-1.9,0.6-3,2.7-2.4,4.6l0.6,1.9c0.6,1.9,2.7,3,4.6,2.4l20.9-6.5c1.9-0.6,3-2.7,2.4-4.6l-0.6-1.9&#10;&#9;&#9;C153.7,393.7,152.3,392.6,150.7,392.6L150.7,392.6z"/>
	<path class="st2_construction-worker-27" d="M159,414.6l-25.6,8c-1.6,0.5-3.3-0.4-3.8-2l-2.1-6.6c-0.5-1.6,0.4-3.3,2-3.8l25.6-8c1.6-0.5,3.3,0.4,3.8,2&#10;&#9;&#9;l2.1,6.6C161.4,412.4,160.6,414.1,159,414.6z"/>
	<path class="st1_construction-worker-27" d="M134.1,424c-3.2,0-6-2.1-7-5.1l-0.6-1.9c-1.2-3.8,0.9-7.9,4.8-9.1l20.9-6.5c3.8-1.2,7.9,0.9,9.1,4.8l0.6,1.9&#10;&#9;&#9;c1.2,3.8-0.9,7.9-4.8,9.1l-20.9,6.5l0,0C135.5,423.9,134.8,424,134.1,424z M154.4,404.6c-0.4,0-0.7,0.1-1.1,0.2l-20.9,6.5&#10;&#9;&#9;c-1.9,0.6-3,2.7-2.4,4.6l0.6,1.9c0.6,1.9,2.6,3,4.6,2.4c0,0,0,0,0,0l0,0l20.9-6.5c1.9-0.6,3-2.6,2.4-4.6c0,0,0,0,0,0l-0.6-1.9&#10;&#9;&#9;C157.4,405.6,156,404.5,154.4,404.6L154.4,404.6z"/>
	<path class="st2_construction-worker-27" d="M171.1,407.3l-5.8,1.8c-1.9,0.6-4-0.5-4.6-2.4l-11.9-38.1c-0.6-1.9,0.5-4,2.4-4.6l5.8-1.8&#10;&#9;&#9;c1.9-0.6,4,0.5,4.6,2.4l11.9,38.1C174.1,404.6,173,406.7,171.1,407.3z"/>
	<path class="st1_construction-worker-27" d="M166.2,410.3c-3.7,0-7-2.4-8.1-6L148,372c-1.7-4.4,0.5-9.3,4.9-11c4.4-1.7,9.3,0.5,11,4.9&#10;&#9;&#9;c0.1,0.3,0.2,0.6,0.3,1l10.1,32.3c1.4,4.5-1.1,9.3-5.6,10.7l0,0C167.9,410.2,167.1,410.3,166.2,410.3z M168.2,408.2L168.2,408.2z&#10;&#9;&#9; M156.1,364.6c-2.7,0-4.9,2.2-4.9,4.9c0,0.5,0.1,1,0.2,1.5l10.1,32.3c0.8,2.6,3.5,4,6.1,3.2c0,0,0,0,0,0l0,0c2.6-0.8,4-3.5,3.2-6.1&#10;&#9;&#9;c0,0,0,0,0,0L160.7,368C160.1,366,158.2,364.6,156.1,364.6L156.1,364.6z"/>
</g>
</svg>